<svg id="页面-1" xmlns="http://www.w3.org/2000/svg" width="24" height="24" viewBox="0 0 24 24">
    <g id="System" transform="translate(-384 -48)">
        <g id="eye_close_fill" transform="translate(384 48)">
            <path id="MingCute"
                d="M24,0V24H0V0ZM12.593,23.258l-.012,0-.071.036-.019,0h0l-.015,0-.071-.036a.021.021,0,0,0-.024.005l0,.011-.017.427,0,.02.011.012.1.074.015,0h0l.012,0,.1-.074.013-.016h0l0-.017-.017-.427a.021.021,0,0,0-.016-.018Zm.265-.113-.014,0-.185.092-.01.01h0l0,.011.018.43,0,.013h0l.008.007.2.093a.025.025,0,0,0,.028-.008l0-.014-.034-.615a.025.025,0,0,0-.019-.021Zm-.715,0a.023.023,0,0,0-.027.005l-.006.014-.034.615a.023.023,0,0,0,.017.023h.016l.2-.093.009-.008h0l0-.012.018-.43,0-.013h0l-.009-.009Z"
                fill="none" />
            <path id="路径"
                d="M2.5,9a1.5,1.5,0,0,1,2.945-.4A6.844,6.844,0,0,0,18.554,8.6a1.5,1.5,0,1,1,2.877.851,10.1,10.1,0,0,1-1.622,3.235l.96.96a1.5,1.5,0,1,1-2.121,2.121l-1.011-1.011a9.616,9.616,0,0,1-1.669.915l.243.906a1.5,1.5,0,0,1-2.9.777l-.251-.936a10.306,10.306,0,0,1-2.122,0l-.251.936a1.5,1.5,0,0,1-2.9-.777l.243-.906a9.611,9.611,0,0,1-1.669-.914L5.354,15.768a1.5,1.5,0,1,1-2.121-2.121l.96-.96A10.1,10.1,0,0,1,2.571,9.458,1.5,1.5,0,0,1,2.5,9Z"
                fill="#000000" fill-rule="evenodd" />
        </g>
    </g>
</svg>
