<svg id="页面-1" xmlns="http://www.w3.org/2000/svg" width="16.248" height="16.248" viewBox="0 0 16.248 16.248">
  <g id="Shape">
    <g id="triangle_fill">
      <path id="MingCute" d="M16.248,16.248V0H0V16.248ZM8.526.5H8.518L8.47.477l-.013,0h0l-.01,0L8.4.5a.014.014,0,0,1-.016,0l0-.007L8.369.2l0-.014L8.379.179l.07-.05.01,0h0l.008,0,.07.05L8.546.19h0l0,.011L8.537.49A.014.014,0,0,1,8.526.5Zm.179.076H8.7L8.571.515,8.564.508h0l0-.008L8.574.209l0-.009h0l.006,0L8.72.133a.017.017,0,0,1,.019.005l0,.01L8.718.564a.017.017,0,0,1-.013.014Zm-.484,0a.016.016,0,0,1-.019,0l0-.009L8.176.148A.015.015,0,0,1,8.187.132H8.2L8.334.2,8.34.2h0l0,.008L8.355.5l0,.009h0L8.346.515Z" fill="none"/>
      <path id="路径" d="M7.847,14.045a1.016,1.016,0,0,0,1.759,0L15.451,3.921A1.016,1.016,0,0,0,14.572,2.4H2.881A1.016,1.016,0,0,0,2,3.921Z" transform="translate(-0.602 0.072)" fill="#fdad15" fill-rule="evenodd"/>
    </g>
  </g>
</svg>
